<svg width="41" height="48" viewBox="0 0 41 48" fill="none" xmlns="http://www.w3.org/2000/svg">
<path d="M3.21094 7.2143C3.21094 4.88303 5.10081 2.99316 7.43208 2.99316H36.7791C39.1104 2.99316 41.0002 4.88303 41.0002 7.21431V42.7925C41.0002 45.1238 39.1103 47.0137 36.7791 47.0137H7.43208C5.1008 47.0137 3.21094 45.1238 3.21094 42.7925V7.2143Z" fill="#332F8A"/>
<path d="M2.60864 6.61372C2.60864 4.28245 4.49851 2.39258 6.82979 2.39258H35.9758C38.307 2.39258 40.1969 4.28245 40.1969 6.61372V42.1919C40.1969 44.5232 38.307 46.4131 35.9758 46.4131H6.82979C4.49851 46.4131 2.60864 44.5232 2.60864 42.1919V6.61372Z" fill="url(#paint0_linear_1146_1321)"/>
<g filter="url(#filter0_f_1146_1321)">
<path d="M2.60864 6.61372C2.60864 4.28245 4.49851 2.39258 6.82979 2.39258H35.9758C38.307 2.39258 40.1969 4.28245 40.1969 6.61372V42.1919C40.1969 44.5232 38.307 46.4131 35.9758 46.4131H6.82979C4.49851 46.4131 2.60864 44.5232 2.60864 42.1919V6.61372Z" stroke="#EFEEFF" stroke-width="0.201007"/>
</g>
<path d="M34.2917 0.885742C36.6331 0.885779 38.5325 2.7485 38.616 5.06152L38.6179 5.28613C38.501 13.1376 38.5016 18.4376 38.6492 25.6982L38.6482 25.9199C38.6165 26.9543 38.2168 27.9445 37.5193 28.709L37.365 28.8691L22.2039 43.8594C21.3949 44.6592 20.3024 45.1074 19.1648 45.1074H5.33765C2.90467 45.1074 0.952483 43.0999 1.01343 40.668L1.11694 36.2041C1.30072 27.5363 1.33552 20.2211 1.13843 10.4492L1.02026 5.34082C0.957288 2.90545 2.91038 0.885836 5.34741 0.885742H34.2917Z" fill="url(#paint1_linear_1146_1321)"/>
<path d="M34.2917 0.885742C36.6331 0.885779 38.5325 2.7485 38.616 5.06152L38.6179 5.28613C38.501 13.1376 38.5016 18.4376 38.6492 25.6982L38.6482 25.9199C38.6165 26.9543 38.2168 27.9445 37.5193 28.709L37.365 28.8691L22.2039 43.8594C21.3949 44.6592 20.3024 45.1074 19.1648 45.1074H5.33765C2.90467 45.1074 0.952483 43.0999 1.01343 40.668L1.11694 36.2041C1.30072 27.5363 1.33552 20.2211 1.13843 10.4492L1.02026 5.34082C0.957288 2.90545 2.91038 0.885836 5.34741 0.885742H34.2917Z" fill="url(#paint2_linear_1146_1321)"/>
<path d="M34.2917 0.885742C36.6331 0.885779 38.5325 2.7485 38.616 5.06152L38.6179 5.28613C38.501 13.1376 38.5016 18.4376 38.6492 25.6982L38.6482 25.9199C38.6165 26.9543 38.2168 27.9445 37.5193 28.709L37.365 28.8691L22.2039 43.8594C21.3949 44.6592 20.3024 45.1074 19.1648 45.1074H5.33765C2.90467 45.1074 0.952483 43.0999 1.01343 40.668L1.11694 36.2041C1.30072 27.5363 1.33552 20.2211 1.13843 10.4492L1.02026 5.34082C0.957288 2.90545 2.91038 0.885836 5.34741 0.885742H34.2917Z" stroke="url(#paint3_linear_1146_1321)" stroke-width="0.201007"/>
<g filter="url(#filter1_i_1146_1321)">
<path d="M10.5995 15.2546C9.70882 15.2546 8.8975 15.0473 8.16556 14.6328C7.43361 14.2095 6.86041 13.6319 6.44593 12.9C6.03146 12.1592 5.82422 11.3391 5.82422 10.4396C5.82422 9.06389 6.27838 7.91306 7.18669 6.98711C8.10383 6.06115 9.24143 5.59818 10.5995 5.59818C11.7283 5.59818 12.7027 5.93769 13.5229 6.61672C14.2426 7.21261 14.7314 7.97149 14.9893 8.89335C15.046 9.09592 14.8875 9.28876 14.6772 9.28876H13.3115C13.1689 9.28876 13.044 9.19723 12.9873 9.06638C12.8708 8.79725 12.7186 8.55832 12.5308 8.34958C12.2927 8.0762 12.0061 7.86897 11.671 7.72787C11.3447 7.57795 10.9875 7.50299 10.5995 7.50299C9.81464 7.50299 9.15765 7.78519 8.62854 8.34958C8.10824 8.90515 7.84809 9.60182 7.84809 10.4396C7.84809 11.2685 8.10824 11.9608 8.62854 12.5164C9.15765 13.0719 9.81464 13.3497 10.5995 13.3497C11.208 13.3497 11.7327 13.1778 12.1736 12.8338C12.5532 12.5378 12.8314 12.1503 13.0084 11.6713C13.0601 11.5314 13.1892 11.4317 13.3383 11.4317H14.7097C14.918 11.4317 15.076 11.6211 15.0238 11.8228C14.7734 12.7905 14.2819 13.5861 13.5493 14.2095C12.7292 14.9062 11.7459 15.2546 10.5995 15.2546Z" fill="#EFEEFF"/>
<path d="M22.0438 6.02052C22.0904 5.88646 22.2168 5.79659 22.3587 5.79659H23.8223C24.0553 5.79659 24.2164 6.02954 24.1342 6.24756L20.8934 14.8404C20.8445 14.9702 20.7202 15.0561 20.5815 15.0561H19.148C19.0108 15.0561 18.8876 14.9721 18.8376 14.8443L15.4741 6.25143C15.3885 6.03281 15.5497 5.79659 15.7845 5.79659H17.2703C17.4111 5.79659 17.5367 5.88509 17.5841 6.0177L19.528 11.454C19.634 11.7502 20.0535 11.7484 20.1568 11.4512L22.0438 6.02052Z" fill="#EFEEFF"/>
</g>
<path d="M21.9239 43.9825C21.8846 44.0248 21.8446 44.0642 21.804 44.1008L21.9239 43.9825C23.0035 42.8189 23.555 39.5036 24.5308 34.4624C24.9724 32.1813 27.0047 30.6177 29.3273 30.6786C32.4772 30.761 35.1476 30.5542 37.4825 28.6233L21.9239 43.9825Z" fill="url(#paint4_linear_1146_1321)"/>
<defs>
<filter id="filter0_f_1146_1321" x="1.98544" y="1.76947" width="38.8345" height="45.2667" filterUnits="userSpaceOnUse" color-interpolation-filters="sRGB">
<feFlood flood-opacity="0" result="BackgroundImageFix"/>
<feBlend mode="normal" in="SourceGraphic" in2="BackgroundImageFix" result="shape"/>
<feGaussianBlur stdDeviation="0.261309" result="effect1_foregroundBlur_1146_1321"/>
</filter>
<filter id="filter1_i_1146_1321" x="5.82422" y="5.59818" width="18.7338" height="9.85738" filterUnits="userSpaceOnUse" color-interpolation-filters="sRGB">
<feFlood flood-opacity="0" result="BackgroundImageFix"/>
<feBlend mode="normal" in="SourceGraphic" in2="BackgroundImageFix" result="shape"/>
<feColorMatrix in="SourceAlpha" type="matrix" values="0 0 0 0 0 0 0 0 0 0 0 0 0 0 0 0 0 0 127 0" result="hardAlpha"/>
<feOffset dx="0.402014" dy="0.201007"/>
<feGaussianBlur stdDeviation="0.803123"/>
<feComposite in2="hardAlpha" operator="arithmetic" k2="-1" k3="1"/>
<feColorMatrix type="matrix" values="0 0 0 0 0.572549 0 0 0 0 0.552941 0 0 0 0 0.988235 0 0 0 0.66 0"/>
<feBlend mode="normal" in2="shape" result="effect1_innerShadow_1146_1321"/>
</filter>
<linearGradient id="paint0_linear_1146_1321" x1="23.4128" y1="29.7295" x2="34.4682" y2="44.001" gradientUnits="userSpaceOnUse">
<stop stop-color="#332F8A"/>
<stop offset="1" stop-color="#5D55FA"/>
</linearGradient>
<linearGradient id="paint1_linear_1146_1321" x1="12.8592" y1="-13.4862" x2="62.5079" y2="112.545" gradientUnits="userSpaceOnUse">
<stop stop-color="white"/>
<stop offset="1" stop-color="#F6EEFF"/>
</linearGradient>
<linearGradient id="paint2_linear_1146_1321" x1="25.1206" y1="26.3132" x2="34.0654" y2="37.9716" gradientUnits="userSpaceOnUse">
<stop stop-color="#EFEEFF" stop-opacity="0"/>
<stop offset="0.841107" stop-color="#CDCAFD"/>
</linearGradient>
<linearGradient id="paint3_linear_1146_1321" x1="5.62291" y1="1.89086" x2="12.1556" y2="40.0822" gradientUnits="userSpaceOnUse">
<stop stop-color="#EFEEFF"/>
<stop offset="1" stop-color="white" stop-opacity="0"/>
</linearGradient>
<linearGradient id="paint4_linear_1146_1321" x1="27.9094" y1="23.1948" x2="31.7678" y2="46.9674" gradientUnits="userSpaceOnUse">
<stop stop-color="#B4B1FD"/>
<stop offset="1" stop-color="#EFEEFF"/>
</linearGradient>
</defs>
</svg>
