<svg width="66" height="30" viewBox="0 0 66 30" fill="none" xmlns="http://www.w3.org/2000/svg">
<path d="M59.2618 6.98923H65.473L58.4544 23.014C57.295 25.6227 56.0941 27.4343 54.8519 28.4488C53.6097 29.4839 51.9223 30.0015 49.7898 30.0015H47.8023V25.0326H49.3861C50.4834 25.0326 51.2701 24.8566 51.7463 24.5047C52.2225 24.1527 52.6573 23.4384 53.0507 22.3618L46.1252 6.98923H52.3985L55.9389 16.2128L59.2618 6.98923Z" fill="#2D3540"/>
<path d="M38.5557 23.7594V0.933472H44.332V23.7594H38.5557Z" fill="#2D3540"/>
<path d="M33.6126 18.6971H35.8487V23.7592H31.8735C30.0102 23.7592 28.5506 23.2312 27.4947 22.1753C26.4388 21.0987 25.9108 19.6287 25.9108 17.7654V11.43H22.8363V10.0946L30.3518 2.08224H31.5319V6.98905H35.7555V11.43H31.6872V16.7716C31.6872 17.372 31.8528 17.8482 32.1841 18.2002C32.5361 18.5314 33.0122 18.6971 33.6126 18.6971Z" fill="#2D3540"/>
<path d="M15.1734 4.87746V0.00170898H20.8566V4.87746H15.1734ZM15.1423 23.7594V6.98925H20.9187V23.7594H15.1423Z" fill="#2D3540"/>
<path d="M12.9485 7.26827V11.8024H9.15972V23.7589H3.38335V11.8024H0.619385V7.26827H3.47651V5.65337C3.47651 4.53536 3.6732 3.58298 4.06657 2.79624C4.48065 1.98879 5.09141 1.37803 5.89886 0.963949C6.70631 0.549873 7.7001 0.342834 8.88021 0.342834H12.9175V4.75275H10.3398C9.92576 4.75275 9.5945 4.87697 9.34605 5.12542C9.09761 5.35316 8.97338 5.68442 8.97338 6.1192V7.26827H12.9485Z" fill="#2D3540"/>
</svg>
