<svg xmlns="http://www.w3.org/2000/svg" width="100" height="40" viewBox="0 0 100 40" fill="none">
  <path d="M93.3181 16.0127H99.3786L92.4999 31.6489C90.2878 36.6791 88.2878 38.467 84.0454 38.467H82.1061V33.6489H83.6818C85.8333 33.6489 86.4697 33.0731 87.2272 31.0428L80.4697 16.0127H86.5909L90.0757 25.0429L93.3181 16.0127Z" fill="#10182C"/>
  <path d="M73.084 32.376V10.1035H78.7203V32.376H73.084Z" fill="#10182C"/>
  <path d="M68.2905 27.4668H70.4419V32.3759H66.5632C62.9572 32.3759 60.7451 30.1638 60.7451 26.5274V20.376H57.7451V19.0427L65.0784 11.2549H66.2602V16.0124H70.351V20.376H66.3814V25.5881C66.3814 26.7396 67.1086 27.4668 68.2905 27.4668Z" fill="#10182C"/>
  <path d="M50.2686 13.9822V9.19434H55.8443V13.9822H50.2686ZM50.2383 32.3759V16.0124H55.8746V32.3759H50.2383Z" fill="#10182C"/>
  <path d="M48.0976 16.2848V20.709H44.4309V32.3756H38.7946V20.709H36.0977L36.0674 16.2848H38.8552V14.7394C38.8552 11.4364 40.6734 9.52734 44.1279 9.52734H48.0672V13.8606H45.5824C44.734 13.8606 44.2491 14.3455 44.2491 15.1939V16.2848H48.0976Z" fill="#10182C"/>
  <path d="M12.6787 29.1326C12.6787 30.9142 11.2345 32.3584 9.4529 32.3584L6.2271 32.3584C4.44553 32.3584 3.00129 30.9142 3.00129 29.1326L3.00129 15.6978C3.00129 13.0254 5.16766 10.8591 7.84 10.8591C10.5123 10.8591 12.6787 13.0254 12.6787 15.6978L12.6787 29.1326Z" fill="#014EFE"/>
  <path d="M3.00684 22.959C3.00684 17.6143 7.33956 13.2816 12.6843 13.2816L20.7488 13.2816C22.5303 13.2816 23.9746 14.7258 23.9746 16.5074L23.9746 19.7332C23.9746 21.5147 22.5303 22.959 20.7488 22.959L3.00684 22.959Z" fill="#014EFE"/>
  <path d="M3.00098 20.1224L15.8216 13.2715L3.00098 15.6776V20.1224Z" fill="#10182C"/>
  <path d="M3.00098 15.7695L1.81004 9.40135C1.48446 7.6604 2.62343 5.98256 4.36161 5.64255L21.7209 2.24689C23.4694 1.90488 25.164 3.04501 25.506 4.79344L26.1237 7.95107C26.4656 9.69901 25.3262 11.3933 23.5784 11.7359L3.00098 15.7695Z" fill="#014EFE"/>
</svg>