<svg width="187" height="204" viewBox="0 0 187 204" fill="none" xmlns="http://www.w3.org/2000/svg">
<g filter="url(#filter0_d_1146_1250)">
<path d="M57.2677 40.6978C58.7217 33.8569 65.4462 29.49 72.2871 30.944L158.403 49.2486C165.244 50.7027 169.611 57.4271 168.157 64.2681L145.966 168.669C144.512 175.51 137.787 179.877 130.947 178.423L44.8302 160.119C37.9893 158.664 33.6224 151.94 35.0765 145.099L57.2677 40.6978Z" fill="#332F8A"/>
<path d="M55.8745 38.5529C57.3286 31.712 64.053 27.3451 70.8939 28.7992L156.42 46.9784C163.261 48.4325 167.628 55.1569 166.174 61.9979L143.983 166.399C142.529 173.24 135.804 177.607 128.964 176.153L43.437 157.974C36.5961 156.52 32.2292 149.795 33.6833 142.954L55.8745 38.5529Z" fill="url(#paint0_linear_1146_1250)"/>
<g filter="url(#filter1_f_1146_1250)">
<path d="M55.8745 38.5529C57.3286 31.712 64.053 27.3451 70.8939 28.7992L156.42 46.9784C163.261 48.4325 167.628 55.1569 166.174 61.9979L143.983 166.399C142.529 173.24 135.804 177.607 128.964 176.153L43.437 157.974C36.5961 156.52 32.2292 149.795 33.6833 142.954L55.8745 38.5529Z" stroke="#EFEEFF" stroke-width="0.603015"/>
</g>
<path d="M152.421 41.5031C159.403 42.987 163.844 49.8294 162.443 56.7838L162.372 57.1151C157.131 80.0813 153.828 95.6333 149.733 117.031L149.665 117.358C148.955 120.615 147.024 123.481 144.265 125.352L143.986 125.536L90.1456 160.065C87.2728 161.907 83.789 162.543 80.4509 161.833L39.8759 153.209C32.7365 151.691 28.2591 144.582 29.9548 137.484L31.5302 130.866C38.733 100.482 43.9503 76.6464 50.5694 41.5285L52.0104 33.8238C53.3446 26.6381 60.3356 21.9298 67.4869 23.4497L152.421 41.5031Z" fill="url(#paint1_linear_1146_1250)"/>
<path d="M152.421 41.5031C159.403 42.987 163.844 49.8294 162.443 56.7838L162.372 57.1151C157.131 80.0813 153.828 95.6333 149.733 117.031L149.665 117.358C148.955 120.615 147.024 123.481 144.265 125.352L143.986 125.536L90.1456 160.065C87.2728 161.907 83.789 162.543 80.4509 161.833L39.8759 153.209C32.7365 151.691 28.2591 144.582 29.9548 137.484L31.5302 130.866C38.733 100.482 43.9503 76.6464 50.5694 41.5285L52.0104 33.8238C53.3446 26.6381 60.3356 21.9298 67.4869 23.4497L152.421 41.5031Z" fill="url(#paint2_linear_1146_1250)"/>
<path d="M152.421 41.5031C159.403 42.987 163.844 49.8294 162.443 56.7838L162.372 57.1151C157.131 80.0813 153.828 95.6333 149.733 117.031L149.665 117.358C148.955 120.615 147.024 123.481 144.265 125.352L143.986 125.536L90.1456 160.065C87.2728 161.907 83.789 162.543 80.4509 161.833L39.8759 153.209C32.7365 151.691 28.2591 144.582 29.9548 137.484L31.5302 130.866C38.733 100.482 43.9503 76.6464 50.5694 41.5285L52.0104 33.8238C53.3446 26.6381 60.3356 21.9298 67.4869 23.4497L152.421 41.5031Z" stroke="url(#paint3_linear_1146_1250)" stroke-width="0.603015"/>
<g filter="url(#filter2_i_1146_1250)">
<path d="M73.9334 68.8991C71.3198 68.3435 69.0683 67.2294 67.179 65.5566C65.2952 63.858 63.9734 61.8055 63.2137 59.3991C62.4595 56.9669 62.3629 54.431 62.924 51.7915C63.7821 47.7546 65.8326 44.6609 69.0755 42.5103C72.3443 40.3652 75.9712 39.7162 79.9564 40.5633C83.2687 41.2673 85.9164 42.8714 87.8995 45.3755C89.6397 47.573 90.6007 50.1047 90.7825 52.9707C90.8225 53.6005 90.2373 54.0675 89.62 53.9363L85.6127 53.0846C85.1943 52.9956 84.8846 52.6491 84.8 52.2298C84.626 51.3674 84.3285 50.5713 83.9074 49.8416C83.3792 48.8909 82.6675 48.104 81.7721 47.481C80.9082 46.8375 79.9069 46.3948 78.7683 46.1528C76.4652 45.6633 74.3613 46.0816 72.4566 47.4077C70.5833 48.7134 69.3854 50.5955 68.8629 53.0539C68.3458 55.4863 68.6774 57.68 69.8577 59.6348C71.0638 61.5951 72.8184 62.82 75.1215 63.3096C76.907 63.6891 78.554 63.5118 80.0624 62.7776C81.3608 62.1456 82.4191 61.182 83.2372 59.8868C83.476 59.5087 83.9172 59.2965 84.3546 59.3895L88.3789 60.2449C88.9903 60.3748 89.3358 61.0291 89.0568 61.5884C87.7181 64.272 85.7796 66.3 83.2412 67.6725C80.4001 69.2053 77.2975 69.6141 73.9334 68.8991Z" fill="#EFEEFF"/>
<path d="M113.275 48.9408C113.496 48.5764 113.923 48.3915 114.339 48.4801L118.634 49.3929C119.317 49.5383 119.645 50.3223 119.268 50.9108L104.398 74.1045C104.174 74.4548 103.756 74.6295 103.349 74.5429L99.1419 73.6488C98.7393 73.5632 98.4303 73.2397 98.3632 72.8336L93.8529 45.5206C93.7382 44.8257 94.3586 44.2331 95.0475 44.3795L99.4075 45.3063C99.8207 45.3941 100.134 45.7322 100.191 46.1508L102.504 63.3158C102.63 64.2511 103.862 64.5072 104.351 63.6997L113.275 48.9408Z" fill="#EFEEFF"/>
</g>
<path d="M89.2477 160.257C89.1061 160.356 88.9643 160.447 88.822 160.529L89.2477 160.257C93.1415 157.516 96.8276 148.131 102.836 133.947C105.554 127.529 112.493 124.208 119.271 125.835C128.462 128.042 136.427 129.101 144.483 124.891L89.2477 160.257Z" fill="url(#paint4_linear_1146_1250)"/>
</g>
<defs>
<filter id="filter0_d_1146_1250" x="0.159469" y="0.266302" width="186.428" height="203.125" filterUnits="userSpaceOnUse" color-interpolation-filters="sRGB">
<feFlood flood-opacity="0" result="BackgroundImageFix"/>
<feColorMatrix in="SourceAlpha" type="matrix" values="0 0 0 0 0 0 0 0 0 0 0 0 0 0 0 0 0 0 127 0" result="hardAlpha"/>
<feOffset dx="-5.49223" dy="1.04614"/>
<feGaussianBlur stdDeviation="11.8214"/>
<feComposite in2="hardAlpha" operator="out"/>
<feColorMatrix type="matrix" values="0 0 0 0 0.364706 0 0 0 0 0.333333 0 0 0 0 0.980392 0 0 0 0.24 0"/>
<feBlend mode="normal" in2="BackgroundImageFix" result="effect1_dropShadow_1146_1250"/>
<feBlend mode="normal" in="SourceGraphic" in2="effect1_dropShadow_1146_1250" result="shape"/>
</filter>
<filter id="filter1_f_1146_1250" x="31.5346" y="26.6505" width="136.788" height="151.651" filterUnits="userSpaceOnUse" color-interpolation-filters="sRGB">
<feFlood flood-opacity="0" result="BackgroundImageFix"/>
<feBlend mode="normal" in="SourceGraphic" in2="BackgroundImageFix" result="shape"/>
<feGaussianBlur stdDeviation="0.78392" result="effect1_foregroundBlur_1146_1250"/>
</filter>
<filter id="filter2_i_1146_1250" x="62.5651" y="40.2036" width="58.0676" height="34.9643" filterUnits="userSpaceOnUse" color-interpolation-filters="sRGB">
<feFlood flood-opacity="0" result="BackgroundImageFix"/>
<feBlend mode="normal" in="SourceGraphic" in2="BackgroundImageFix" result="shape"/>
<feColorMatrix in="SourceAlpha" type="matrix" values="0 0 0 0 0 0 0 0 0 0 0 0 0 0 0 0 0 0 127 0" result="hardAlpha"/>
<feOffset dx="1.20603" dy="0.603015"/>
<feGaussianBlur stdDeviation="2.40935"/>
<feComposite in2="hardAlpha" operator="arithmetic" k2="-1" k3="1"/>
<feColorMatrix type="matrix" values="0 0 0 0 0.572549 0 0 0 0 0.552941 0 0 0 0 0.988235 0 0 0 0.66 0"/>
<feBlend mode="normal" in2="shape" result="effect1_innerShadow_1146_1250"/>
</filter>
<linearGradient id="paint0_linear_1146_1250" x1="102.505" y1="119.36" x2="126.044" y2="168.135" gradientUnits="userSpaceOnUse">
<stop stop-color="#332F8A"/>
<stop offset="1" stop-color="#5D55FA"/>
</linearGradient>
<linearGradient id="paint1_linear_1146_1250" x1="98.4936" y1="-14.0382" x2="165.574" y2="386.757" gradientUnits="userSpaceOnUse">
<stop stop-color="white"/>
<stop offset="1" stop-color="#F6EEFF"/>
</linearGradient>
<linearGradient id="paint2_linear_1146_1250" x1="109.65" y1="110.397" x2="128.626" y2="150.187" gradientUnits="userSpaceOnUse">
<stop stop-color="#EFEEFF" stop-opacity="0"/>
<stop offset="0.841107" stop-color="#CDCAFD"/>
</linearGradient>
<linearGradient id="paint3_linear_1146_1250" x1="67.6683" y1="26.5709" x2="63.017" y2="142.715" gradientUnits="userSpaceOnUse">
<stop stop-color="#EFEEFF"/>
<stop offset="1" stop-color="white" stop-opacity="0"/>
</linearGradient>
<linearGradient id="paint4_linear_1146_1250" x1="119.778" y1="102.99" x2="116.272" y2="175.156" gradientUnits="userSpaceOnUse">
<stop stop-color="#B4B1FD"/>
<stop offset="1" stop-color="#EFEEFF"/>
</linearGradient>
</defs>
</svg>
