<svg width="73" height="73" viewBox="0 0 73 73" fill="none" xmlns="http://www.w3.org/2000/svg">
<g filter="url(#filter0_d_1146_1263)">
<path d="M57.4813 35.4661C57.4813 23.8597 48.0725 14.4508 36.466 14.4508C24.8596 14.4508 15.4507 23.8597 15.4507 35.4661C15.4507 47.0726 24.8596 56.4815 36.466 56.4815C48.0725 56.4815 57.4813 47.0726 57.4813 35.4661ZM66.932 35.4661C66.932 52.2921 53.2919 65.9321 36.466 65.9321C19.6401 65.9321 6 52.2921 6 35.4661C6 18.6402 19.6401 5.00012 36.466 5.00012C53.2919 5.00012 66.932 18.6402 66.932 35.4661Z" fill="white"/>
</g>
<path d="M59.4815 35.4658C59.4815 22.7606 49.1818 12.4609 36.4765 12.4609C23.7712 12.4609 13.4716 22.7606 13.4716 35.4658C13.4716 48.1711 23.7712 58.4708 36.4765 58.4708V61.2065V63.9422C20.7494 63.9422 8.00012 51.1929 8.00012 35.4658C8.00012 19.7388 20.7494 6.98944 36.4765 6.98944C52.2036 6.98944 64.9529 19.7388 64.9529 35.4658C64.9529 51.1929 52.2036 63.9422 36.4765 63.9422V58.4708C49.1818 58.4708 59.4815 48.1711 59.4815 35.4658Z" fill="url(#paint0_linear_1146_1263)"/>
<path d="M26.9609 39.1348C26.3164 39.1348 25.748 39.0176 25.2559 38.7832C24.7637 38.5488 24.373 38.2168 24.084 37.7871C23.7988 37.3535 23.6387 36.8438 23.6035 36.2578H25.5723C25.5801 36.6289 25.7168 36.9375 25.9824 37.1836C26.248 37.4258 26.5781 37.5469 26.9727 37.5469C27.3789 37.5469 27.709 37.4121 27.9629 37.1426C28.2168 36.8691 28.3438 36.5176 28.3438 36.0879C28.3438 35.6543 28.2168 35.2988 27.9629 35.0215C27.7129 34.7441 27.3887 34.6055 26.9902 34.6055C26.6465 34.6055 26.3535 34.6797 26.1113 34.8281C25.873 34.9727 25.7109 35.1719 25.625 35.4258H23.7266L23.9844 30.2695H29.7969V31.9395H25.8359L25.7012 33.6914H25.7129C26.1191 33.2773 26.6738 33.0703 27.377 33.0703C27.9004 33.0703 28.3848 33.2012 28.8301 33.4629C29.2793 33.7246 29.6406 34.0781 29.9141 34.5234C30.1875 34.9688 30.3242 35.4707 30.3242 36.0293C30.3242 36.6348 30.1836 37.1719 29.9023 37.6406C29.625 38.1055 29.2344 38.4707 28.7305 38.7363C28.2266 39.002 27.6367 39.1348 26.9609 39.1348ZM34.625 39.1406C33.8594 39.1406 33.2012 38.959 32.6504 38.5957C32.0996 38.2324 31.6758 37.7148 31.3789 37.043C31.0859 36.3672 30.9395 35.5664 30.9395 34.6406C30.9395 33.7109 31.0859 32.9102 31.3789 32.2383C31.6758 31.5625 32.0996 31.043 32.6504 30.6797C33.2012 30.3125 33.8594 30.1289 34.625 30.1289C35.3945 30.1289 36.0547 30.3125 36.6055 30.6797C37.1562 31.043 37.5781 31.5625 37.8711 32.2383C38.1641 32.9102 38.3105 33.7109 38.3105 34.6406C38.3105 35.5703 38.1641 36.3711 37.8711 37.043C37.5781 37.7148 37.1562 38.2324 36.6055 38.5957C36.0547 38.959 35.3945 39.1406 34.625 39.1406ZM34.625 37.4883C35.1523 37.4883 35.5684 37.2344 35.873 36.7266C36.1777 36.2188 36.3301 35.5234 36.3301 34.6406C36.3301 33.7539 36.1777 33.0566 35.873 32.5488C35.5684 32.0371 35.1523 31.7812 34.625 31.7812C34.0977 31.7812 33.6816 32.0371 33.377 32.5488C33.0762 33.0566 32.9258 33.7539 32.9258 34.6406C32.9258 35.5234 33.0762 36.2188 33.377 36.7266C33.6816 37.2344 34.0977 37.4883 34.625 37.4883ZM39.3535 32.5312V32.3555C39.3535 31.9062 39.4434 31.5156 39.623 31.1836C39.8066 30.8477 40.0566 30.5879 40.373 30.4043C40.6895 30.2207 41.0527 30.1289 41.4629 30.1289C41.873 30.1289 42.2363 30.2207 42.5527 30.4043C42.873 30.5879 43.123 30.8477 43.3027 31.1836C43.4863 31.5156 43.5781 31.9062 43.5781 32.3555V32.5312C43.5781 32.9766 43.4863 33.3652 43.3027 33.6973C43.123 34.0293 42.873 34.2871 42.5527 34.4707C42.2363 34.6543 41.873 34.7461 41.4629 34.7461C41.0527 34.7461 40.6895 34.6543 40.373 34.4707C40.0566 34.2871 39.8066 34.0293 39.623 33.6973C39.4434 33.3652 39.3535 32.9766 39.3535 32.5312ZM44.7031 36.9258V36.75C44.7031 36.3008 44.793 35.9102 44.9727 35.5781C45.1562 35.2461 45.4062 34.9883 45.7227 34.8047C46.0391 34.6172 46.4023 34.5234 46.8125 34.5234C47.2227 34.5234 47.5859 34.6172 47.9023 34.8047C48.2227 34.9883 48.4727 35.2461 48.6523 35.5781C48.8359 35.9102 48.9277 36.3008 48.9277 36.75V36.9258C48.9277 37.3711 48.8359 37.7598 48.6523 38.0918C48.4727 38.4238 48.2227 38.6816 47.9023 38.8652C47.5859 39.0488 47.2227 39.1406 46.8125 39.1406C46.4023 39.1406 46.0391 39.0488 45.7227 38.8652C45.4062 38.6816 45.1562 38.4238 44.9727 38.0918C44.793 37.7598 44.7031 37.3711 44.7031 36.9258ZM40.4492 39L46.4492 30.2695H47.832L41.832 39H40.4492ZM46.0918 36.75V36.9258C46.0918 37.2695 46.1562 37.5254 46.2852 37.6934C46.418 37.8613 46.5938 37.9453 46.8125 37.9453C47.0312 37.9453 47.207 37.8613 47.3398 37.6934C47.4727 37.5254 47.5391 37.2695 47.5391 36.9258V36.75C47.5391 36.4023 47.4727 36.1426 47.3398 35.9707C47.207 35.7988 47.0312 35.7129 46.8125 35.7129C46.5938 35.7129 46.418 35.7988 46.2852 35.9707C46.1562 36.1426 46.0918 36.4023 46.0918 36.75ZM40.7422 32.3555V32.5312C40.7422 32.875 40.8066 33.1309 40.9355 33.2988C41.0684 33.4629 41.2441 33.5449 41.4629 33.5449C41.6816 33.5449 41.8574 33.4629 41.9902 33.2988C42.123 33.1309 42.1895 32.875 42.1895 32.5312V32.3555C42.1895 32.0039 42.123 31.7441 41.9902 31.5762C41.8574 31.4043 41.6816 31.3184 41.4629 31.3184C41.2441 31.3184 41.0684 31.4043 40.9355 31.5762C40.8066 31.7441 40.7422 32.0039 40.7422 32.3555Z" fill="#8E98A8"/>
<defs>
<filter id="filter0_d_1146_1263" x="0.851865" y="0.846796" width="71.2283" height="71.2283" filterUnits="userSpaceOnUse" color-interpolation-filters="sRGB">
<feFlood flood-opacity="0" result="BackgroundImageFix"/>
<feColorMatrix in="SourceAlpha" type="matrix" values="0 0 0 0 0 0 0 0 0 0 0 0 0 0 0 0 0 0 127 0" result="hardAlpha"/>
<feOffset dy="0.994809"/>
<feGaussianBlur stdDeviation="2.57407"/>
<feComposite in2="hardAlpha" operator="out"/>
<feColorMatrix type="matrix" values="0 0 0 0 0.803922 0 0 0 0 0.792157 0 0 0 0 0.992157 0 0 0 0.42 0"/>
<feBlend mode="normal" in2="BackgroundImageFix" result="effect1_dropShadow_1146_1263"/>
<feBlend mode="normal" in="SourceGraphic" in2="effect1_dropShadow_1146_1263" result="shape"/>
</filter>
<linearGradient id="paint0_linear_1146_1263" x1="31.5106" y1="8.50018" x2="44.5106" y2="8.50018" gradientUnits="userSpaceOnUse">
<stop stop-color="#E3E5E9"/>
<stop offset="1" stop-color="#B4B1FD"/>
</linearGradient>
</defs>
</svg>
