<svg width="73" height="73" viewBox="0 0 73 73" fill="none" xmlns="http://www.w3.org/2000/svg">
<g filter="url(#filter0_d_1146_1271)">
<path d="M57.4813 35.4661C57.4813 23.8597 48.0725 14.4508 36.466 14.4508C24.8596 14.4508 15.4507 23.8597 15.4507 35.4661C15.4507 47.0726 24.8596 56.4815 36.466 56.4815C48.0725 56.4815 57.4813 47.0726 57.4813 35.4661ZM66.932 35.4661C66.932 52.2921 53.2919 65.9321 36.466 65.9321C19.6401 65.9321 6 52.2921 6 35.4661C6 18.6402 19.6401 5.00012 36.466 5.00012C53.2919 5.00012 66.932 18.6402 66.932 35.4661Z" fill="white"/>
</g>
<path d="M59.4815 35.4658C59.4815 22.7606 49.1818 12.4609 36.4765 12.4609C23.7712 12.4609 13.4716 22.7606 13.4716 35.4658C13.4716 48.1711 23.7712 58.4708 36.4765 58.4708V61.2065V63.9422C20.7494 63.9422 8.00012 51.1929 8.00012 35.4658C8.00012 19.7388 20.7494 6.98944 36.4765 6.98944C52.2036 6.98944 64.9529 19.7388 64.9529 35.4658C64.9529 51.1929 52.2036 63.9422 36.4765 63.9422V58.4708C49.1818 58.4708 59.4815 48.1711 59.4815 35.4658Z" fill="url(#paint0_linear_1146_1271)"/>
<path d="M26.9473 39.1406C25.8105 39.1406 24.9258 38.7598 24.293 37.998C23.6602 37.2363 23.3438 36.1699 23.3438 34.7988C23.3438 33.8496 23.4844 33.0254 23.7656 32.3262C24.0508 31.627 24.4648 31.0859 25.0078 30.7031C25.5508 30.3203 26.2129 30.1289 26.9941 30.1289C27.6035 30.1289 28.1387 30.2441 28.5996 30.4746C29.0605 30.7012 29.4297 31.0117 29.707 31.4062C29.9844 31.7969 30.1484 32.2363 30.1992 32.7246H28.248C28.1895 32.416 28.0449 32.1699 27.8145 31.9863C27.5879 31.7988 27.2969 31.7051 26.9414 31.7051C26.3711 31.7051 25.9492 31.9297 25.6758 32.3789C25.4062 32.8242 25.2715 33.4219 25.2715 34.1719H25.2832C25.7246 33.5117 26.4004 33.1816 27.3105 33.1816C27.8887 33.1816 28.4023 33.3086 28.8516 33.5625C29.3047 33.8164 29.6602 34.1641 29.918 34.6055C30.1758 35.0469 30.3047 35.5488 30.3047 36.1113C30.3047 36.7129 30.1602 37.2422 29.8711 37.6992C29.5859 38.1523 29.1914 38.5059 28.6875 38.7598C28.1836 39.0137 27.6035 39.1406 26.9473 39.1406ZM26.9297 37.5234C27.3281 37.5234 27.6582 37.3906 27.9199 37.125C28.1816 36.8555 28.3125 36.5176 28.3125 36.1113C28.3125 35.709 28.1816 35.375 27.9199 35.1094C27.6621 34.8438 27.3359 34.7109 26.9414 34.7109C26.5469 34.7109 26.2168 34.8457 25.9512 35.1152C25.6895 35.3809 25.5586 35.7148 25.5586 36.1172C25.5586 36.5195 25.6895 36.8555 25.9512 37.125C26.2129 37.3906 26.5391 37.5234 26.9297 37.5234ZM34.2363 39.1348C33.5918 39.1348 33.0234 39.0176 32.5312 38.7832C32.0391 38.5488 31.6484 38.2168 31.3594 37.7871C31.0742 37.3535 30.9141 36.8438 30.8789 36.2578H32.8477C32.8555 36.6289 32.9922 36.9375 33.2578 37.1836C33.5234 37.4258 33.8535 37.5469 34.248 37.5469C34.6543 37.5469 34.9844 37.4121 35.2383 37.1426C35.4922 36.8691 35.6191 36.5176 35.6191 36.0879C35.6191 35.6543 35.4922 35.2988 35.2383 35.0215C34.9883 34.7441 34.6641 34.6055 34.2656 34.6055C33.9219 34.6055 33.6289 34.6797 33.3867 34.8281C33.1484 34.9727 32.9863 35.1719 32.9004 35.4258H31.002L31.2598 30.2695H37.0723V31.9395H33.1113L32.9766 33.6914H32.9883C33.3945 33.2773 33.9492 33.0703 34.6523 33.0703C35.1758 33.0703 35.6602 33.2012 36.1055 33.4629C36.5547 33.7246 36.916 34.0781 37.1895 34.5234C37.4629 34.9688 37.5996 35.4707 37.5996 36.0293C37.5996 36.6348 37.459 37.1719 37.1777 37.6406C36.9004 38.1055 36.5098 38.4707 36.0059 38.7363C35.502 39.002 34.9121 39.1348 34.2363 39.1348ZM38.6484 32.5312V32.3555C38.6484 31.9062 38.7383 31.5156 38.918 31.1836C39.1016 30.8477 39.3516 30.5879 39.668 30.4043C39.9844 30.2207 40.3477 30.1289 40.7578 30.1289C41.168 30.1289 41.5312 30.2207 41.8477 30.4043C42.168 30.5879 42.418 30.8477 42.5977 31.1836C42.7812 31.5156 42.873 31.9062 42.873 32.3555V32.5312C42.873 32.9766 42.7812 33.3652 42.5977 33.6973C42.418 34.0293 42.168 34.2871 41.8477 34.4707C41.5312 34.6543 41.168 34.7461 40.7578 34.7461C40.3477 34.7461 39.9844 34.6543 39.668 34.4707C39.3516 34.2871 39.1016 34.0293 38.918 33.6973C38.7383 33.3652 38.6484 32.9766 38.6484 32.5312ZM43.998 36.9258V36.75C43.998 36.3008 44.0879 35.9102 44.2676 35.5781C44.4512 35.2461 44.7012 34.9883 45.0176 34.8047C45.334 34.6172 45.6973 34.5234 46.1074 34.5234C46.5176 34.5234 46.8809 34.6172 47.1973 34.8047C47.5176 34.9883 47.7676 35.2461 47.9473 35.5781C48.1309 35.9102 48.2227 36.3008 48.2227 36.75V36.9258C48.2227 37.3711 48.1309 37.7598 47.9473 38.0918C47.7676 38.4238 47.5176 38.6816 47.1973 38.8652C46.8809 39.0488 46.5176 39.1406 46.1074 39.1406C45.6973 39.1406 45.334 39.0488 45.0176 38.8652C44.7012 38.6816 44.4512 38.4238 44.2676 38.0918C44.0879 37.7598 43.998 37.3711 43.998 36.9258ZM39.7441 39L45.7441 30.2695H47.127L41.127 39H39.7441ZM45.3867 36.75V36.9258C45.3867 37.2695 45.4512 37.5254 45.5801 37.6934C45.7129 37.8613 45.8887 37.9453 46.1074 37.9453C46.3262 37.9453 46.502 37.8613 46.6348 37.6934C46.7676 37.5254 46.834 37.2695 46.834 36.9258V36.75C46.834 36.4023 46.7676 36.1426 46.6348 35.9707C46.502 35.7988 46.3262 35.7129 46.1074 35.7129C45.8887 35.7129 45.7129 35.7988 45.5801 35.9707C45.4512 36.1426 45.3867 36.4023 45.3867 36.75ZM40.0371 32.3555V32.5312C40.0371 32.875 40.1016 33.1309 40.2305 33.2988C40.3633 33.4629 40.5391 33.5449 40.7578 33.5449C40.9766 33.5449 41.1523 33.4629 41.2852 33.2988C41.418 33.1309 41.4844 32.875 41.4844 32.5312V32.3555C41.4844 32.0039 41.418 31.7441 41.2852 31.5762C41.1523 31.4043 40.9766 31.3184 40.7578 31.3184C40.5391 31.3184 40.3633 31.4043 40.2305 31.5762C40.1016 31.7441 40.0371 32.0039 40.0371 32.3555Z" fill="#928DFC"/>
<defs>
<filter id="filter0_d_1146_1271" x="0.851865" y="0.846796" width="71.2283" height="71.2283" filterUnits="userSpaceOnUse" color-interpolation-filters="sRGB">
<feFlood flood-opacity="0" result="BackgroundImageFix"/>
<feColorMatrix in="SourceAlpha" type="matrix" values="0 0 0 0 0 0 0 0 0 0 0 0 0 0 0 0 0 0 127 0" result="hardAlpha"/>
<feOffset dy="0.994809"/>
<feGaussianBlur stdDeviation="2.57407"/>
<feComposite in2="hardAlpha" operator="out"/>
<feColorMatrix type="matrix" values="0 0 0 0 0.803922 0 0 0 0 0.792157 0 0 0 0 0.992157 0 0 0 0.42 0"/>
<feBlend mode="normal" in2="BackgroundImageFix" result="effect1_dropShadow_1146_1271"/>
<feBlend mode="normal" in="SourceGraphic" in2="effect1_dropShadow_1146_1271" result="shape"/>
</filter>
<linearGradient id="paint0_linear_1146_1271" x1="22.5001" y1="9.50018" x2="44.5106" y2="8.50018" gradientUnits="userSpaceOnUse">
<stop stop-color="#E3E5E9"/>
<stop offset="1" stop-color="#928DFC"/>
</linearGradient>
</defs>
</svg>
