<svg width="73" height="73" viewBox="0 0 73 73" fill="none" xmlns="http://www.w3.org/2000/svg">
<g filter="url(#filter0_d_1146_1280)">
<path d="M57.4813 35.4666C57.4813 23.8602 48.0725 14.4513 36.466 14.4513C24.8596 14.4513 15.4507 23.8602 15.4507 35.4666C15.4507 47.0731 24.8596 56.482 36.466 56.482C48.0725 56.482 57.4813 47.0731 57.4813 35.4666ZM66.932 35.4666C66.932 52.2925 53.2919 65.9326 36.466 65.9326C19.6401 65.9326 6 52.2925 6 35.4666C6 18.6407 19.6401 5.00061 36.466 5.00061C53.2919 5.00061 66.932 18.6407 66.932 35.4666Z" fill="white"/>
</g>
<path d="M59.4813 35.4663C59.4813 22.761 49.1817 12.4613 36.4764 12.4613C23.7711 12.4613 13.4714 22.761 13.4714 35.4663C13.4714 48.1715 23.7711 58.4712 36.4764 58.4712V61.2069V63.9427C20.7493 63.9427 8 51.1933 8 35.4663C8 19.7392 20.7493 6.98987 36.4764 6.98987C52.2035 6.98987 64.9528 19.7392 64.9528 35.4663C64.9528 51.1933 52.2035 63.9427 36.4764 63.9427V58.4712C49.1817 58.4712 59.4813 48.1715 59.4813 35.4663Z" fill="url(#paint0_linear_1146_1280)"/>
<path d="M27.0762 39.1412C26.3848 39.1412 25.7793 39.0377 25.2598 38.8307C24.7402 38.6198 24.3359 38.3268 24.0469 37.9518C23.7617 37.5768 23.6191 37.1412 23.6191 36.6451C23.6191 36.0905 23.7949 35.6139 24.1465 35.2155C24.498 34.817 24.959 34.5709 25.5293 34.4772V34.4655C25.0371 34.3717 24.6426 34.1471 24.3457 33.7916C24.0488 33.4323 23.9004 33.0045 23.9004 32.5084C23.9004 32.0397 24.0332 31.6276 24.2988 31.2721C24.5684 30.9127 24.9414 30.6334 25.418 30.4342C25.8945 30.2311 26.4473 30.1295 27.0762 30.1295C27.7129 30.1295 28.2695 30.2291 28.7461 30.4283C29.2227 30.6237 29.5918 30.901 29.8535 31.2604C30.1191 31.6158 30.252 32.0319 30.252 32.5084C30.252 33.0045 30.1035 33.4323 29.8066 33.7916C29.5137 34.1471 29.1211 34.3717 28.6289 34.4655V34.4772C29.1992 34.5709 29.6602 34.819 30.0117 35.2213C30.3633 35.6198 30.5391 36.0944 30.5391 36.6451C30.5391 37.1412 30.3945 37.5768 30.1055 37.9518C29.8164 38.3268 29.4121 38.6198 28.8926 38.8307C28.373 39.0377 27.7676 39.1412 27.0762 39.1412ZM27.0762 37.6764C27.4668 37.6764 27.7871 37.567 28.0371 37.3483C28.291 37.1256 28.418 36.8405 28.418 36.4928C28.418 36.1412 28.291 35.8522 28.0371 35.6256C27.7871 35.399 27.4668 35.2858 27.0762 35.2858C26.6855 35.2858 26.3633 35.399 26.1094 35.6256C25.8594 35.8522 25.7344 36.1412 25.7344 36.4928C25.7344 36.8405 25.8594 37.1256 26.1094 37.3483C26.3594 37.567 26.6816 37.6764 27.0762 37.6764ZM27.0762 33.774C27.4277 33.774 27.7109 33.6764 27.9258 33.4811C28.1406 33.2858 28.248 33.026 28.248 32.7018C28.248 32.3815 28.1406 32.1256 27.9258 31.9342C27.7109 31.7389 27.4277 31.6412 27.0762 31.6412C26.7207 31.6412 26.4375 31.7389 26.2266 31.9342C26.0156 32.1256 25.9102 32.3815 25.9102 32.7018C25.9102 33.026 26.0156 33.2858 26.2266 33.4811C26.4375 33.6764 26.7207 33.774 27.0762 33.774ZM31.7051 39.0006L35.2559 32.0104V31.9987H31.1074V30.2701H37.377V31.9518L33.8262 39.0006H31.7051ZM38.373 32.5319V32.3561C38.373 31.9069 38.4629 31.5162 38.6426 31.1842C38.8262 30.8483 39.0762 30.5885 39.3926 30.4049C39.709 30.2213 40.0723 30.1295 40.4824 30.1295C40.8926 30.1295 41.2559 30.2213 41.5723 30.4049C41.8926 30.5885 42.1426 30.8483 42.3223 31.1842C42.5059 31.5162 42.5977 31.9069 42.5977 32.3561V32.5319C42.5977 32.9772 42.5059 33.3658 42.3223 33.6979C42.1426 34.0299 41.8926 34.2877 41.5723 34.4713C41.2559 34.6549 40.8926 34.7467 40.4824 34.7467C40.0723 34.7467 39.709 34.6549 39.3926 34.4713C39.0762 34.2877 38.8262 34.0299 38.6426 33.6979C38.4629 33.3658 38.373 32.9772 38.373 32.5319ZM43.7227 36.9264V36.7506C43.7227 36.3014 43.8125 35.9108 43.9922 35.5787C44.1758 35.2467 44.4258 34.9889 44.7422 34.8053C45.0586 34.6178 45.4219 34.524 45.832 34.524C46.2422 34.524 46.6055 34.6178 46.9219 34.8053C47.2422 34.9889 47.4922 35.2467 47.6719 35.5787C47.8555 35.9108 47.9473 36.3014 47.9473 36.7506V36.9264C47.9473 37.3717 47.8555 37.7604 47.6719 38.0924C47.4922 38.4244 47.2422 38.6823 46.9219 38.8658C46.6055 39.0494 46.2422 39.1412 45.832 39.1412C45.4219 39.1412 45.0586 39.0494 44.7422 38.8658C44.4258 38.6823 44.1758 38.4244 43.9922 38.0924C43.8125 37.7604 43.7227 37.3717 43.7227 36.9264ZM39.4688 39.0006L45.4688 30.2701H46.8516L40.8516 39.0006H39.4688ZM45.1113 36.7506V36.9264C45.1113 37.2701 45.1758 37.526 45.3047 37.694C45.4375 37.8619 45.6133 37.9459 45.832 37.9459C46.0508 37.9459 46.2266 37.8619 46.3594 37.694C46.4922 37.526 46.5586 37.2701 46.5586 36.9264V36.7506C46.5586 36.403 46.4922 36.1432 46.3594 35.9713C46.2266 35.7994 46.0508 35.7135 45.832 35.7135C45.6133 35.7135 45.4375 35.7994 45.3047 35.9713C45.1758 36.1432 45.1113 36.403 45.1113 36.7506ZM39.7617 32.3561V32.5319C39.7617 32.8756 39.8262 33.1315 39.9551 33.2994C40.0879 33.4635 40.2637 33.5455 40.4824 33.5455C40.7012 33.5455 40.877 33.4635 41.0098 33.2994C41.1426 33.1315 41.209 32.8756 41.209 32.5319V32.3561C41.209 32.0045 41.1426 31.7448 41.0098 31.5768C40.877 31.4049 40.7012 31.319 40.4824 31.319C40.2637 31.319 40.0879 31.4049 39.9551 31.5768C39.8262 31.7448 39.7617 32.0045 39.7617 32.3561Z" fill="#5D55FA"/>
<defs>
<filter id="filter0_d_1146_1280" x="0.851865" y="0.847284" width="71.2284" height="71.2283" filterUnits="userSpaceOnUse" color-interpolation-filters="sRGB">
<feFlood flood-opacity="0" result="BackgroundImageFix"/>
<feColorMatrix in="SourceAlpha" type="matrix" values="0 0 0 0 0 0 0 0 0 0 0 0 0 0 0 0 0 0 127 0" result="hardAlpha"/>
<feOffset dy="0.994809"/>
<feGaussianBlur stdDeviation="2.57407"/>
<feComposite in2="hardAlpha" operator="out"/>
<feColorMatrix type="matrix" values="0 0 0 0 0.803922 0 0 0 0 0.792157 0 0 0 0 0.992157 0 0 0 0.42 0"/>
<feBlend mode="normal" in2="BackgroundImageFix" result="effect1_dropShadow_1146_1280"/>
<feBlend mode="normal" in="SourceGraphic" in2="effect1_dropShadow_1146_1280" result="shape"/>
</filter>
<linearGradient id="paint0_linear_1146_1280" x1="6.5" y1="25.0006" x2="44.5105" y2="8.50061" gradientUnits="userSpaceOnUse">
<stop stop-color="#E3E5E9"/>
<stop offset="0.632458" stop-color="#5D55FA"/>
</linearGradient>
</defs>
</svg>
