<svg width="24" height="25" viewBox="0 0 24 25" fill="none" xmlns="http://www.w3.org/2000/svg">
<path d="M13.69 1.5C13.2608 1.5 12.8618 1.72113 12.6343 2.08513L8 9.5V21.5H18.7639C19.5215 21.5 20.214 21.072 20.5528 20.3944L22.5777 16.3446C22.8554 15.7892 23 15.1767 23 14.5557V10.5C23 9.39543 22.1046 8.5 21 8.5H14.5L15.516 3.75871C15.7651 2.59621 14.8789 1.5 13.69 1.5Z" fill="#F7F6F2"/>
<path d="M2 10.5C2 9.94772 2.44772 9.5 3 9.5H6V21.5H3C2.44772 21.5 2 21.0523 2 20.5V10.5Z" fill="#F7F6F2"/>
</svg>
